<svg width="110" height="111" xmlns="http://www.w3.org/2000/svg" xmlns:xlink="http://www.w3.org/1999/xlink" xml:space="preserve" overflow="hidden"><g transform="translate(-746 -201)"><g><g><g><g><path d="M802.097 211.083 772.414 220.912 777.727 224.741 807.446 214.901ZM777.727 224.741 772.414 220.913 772.414 286.735 777.727 291.073ZM808.515 215.664 779.056 225.419 779.056 292.157 784.368 296.495 784.368 229.403 814.013 219.587ZM815.194 220.43 785.696 230.197 785.696 265.378 785.696 297.579 791.009 301.917 830.586 288.813 830.586 256.257 825.273 252.273 820.692 253.79 820.692 252.556 823.945 251.479 820.692 249.039 820.692 224.353ZM815.194 226.173 815.194 255.611 791.009 263.619 791.009 263.489 791.009 234.182ZM814.013 227.963 808.515 229.784 808.515 250.844 792.337 256.202 792.337 261.945 813.924 254.797 814.013 254.866 814.013 254.771 814.013 249.028ZM807.446 230.138 802.097 231.909 802.097 246.241 802.123 246.258 792.341 249.497 792.341 255.086 807.449 250.083 807.449 244.494ZM825.273 258.017 825.273 284.475 791.009 295.819 791.009 274.611 791.009 270.04 791.009 269.363 820.691 259.534ZM823.945 259.847 818.632 261.606 818.632 279.053 792.337 287.761 792.337 293.857 823.945 283.391ZM817.304 262.045 811.991 263.805 811.991 273.631 792.337 280.139 792.337 286.236 817.304 277.969Z" fill="#000000" fill-rule="nonzero" fill-opacity="1"/></g></g></g></g></g></svg>